<svg xmlns="http://www.w3.org/2000/svg"><defs><font id="Poppins" horiz-adv-x="886"><font-face alphabetic="0" ascent="1050" descent="-350" font-family="Poppins Black" panose-1="0 0 10 0 0 0 0 0 0 0" units-per-em="1000"/><glyph glyph-name="space" horiz-adv-x="170"/><glyph d="M432 755L323 281H133L190 755H432ZM125 -8T96 17T66 82Q66 117 85 147T139 194T216 212Q267 212 296 187T325 121Q325 86 306 57T253 10T177 -8Q125 -8 96 17Z" glyph-name="exclam" horiz-adv-x="455" unicode="!"/><glyph d="M312 803L257 568H109L137 803H312ZM537 803L482 568H334L362 803H537Z" glyph-name="quotedbl" horiz-adv-x="490" unicode="&quot;"/><glyph d="M789 421L752 326H863L827 124H673L625 0H419L467 124H328L280 0H75L123 124H-18L18 326H202L239 421H103L138 623H318L364 740H569L523 623H662L708 740H914L868 623H983L948 421H789ZM583 421H444L407 326H546L583 421Z" glyph-name="numbersign" horiz-adv-x="933" unicode="#"/><glyph d="M423 491Q426 528 407 543L390 445L420 435Q483 415 525 396T597 340T628 248Q628 237 624 209Q613 149 572 101T464 24T310 -7L296 -87H234L248 -5Q143 5 82 56T20 197Q20 207 22 227H258Q254 186 279 171L297 269Q222 290 179 307T100 362T65 463Q65 484 69 504Q81 569 125 616T235 690T376 719L390 800H452L438 719Q546 711 605 661T664 522Q664 513 662 491H423ZM308 486T332 470L346 550Q328 547 318 536T308 507Q308 486 332 470ZM387 231T355 248L340 162Q361 165 374 178T387 211Q387 231 355 248Z" glyph-name="dollar" horiz-adv-x="665" unicode="$"/><glyph d="M81 628T139 674T278 721Q347 721 388 686T429 584Q429 561 425 540Q410 452 353 406T215 360Q145 360 103 395T61 498Q61 520 65 540Q81 628 139 674ZM817 711L318 0H106L605 711H817ZM220 592T210 540Q208 526 208 521Q208 489 235 489Q253 489 265 502T281 540Q283 554 283 559Q283 592 254 592Q220 592 210 540ZM513 259T571 305T709 352Q779 352 819 317T860 215Q860 192 856 171Q841 83 784 37T646 -10Q577 -10 535 25T493 129Q493 151 497 171Q513 259 571 305ZM669 223T657 210T641 171Q639 157 639 152Q639 119 667 119Q684 119 696 132T712 171Q714 185 714 189Q714 223 686 223Q669 223 657 210Z" glyph-name="percent" horiz-adv-x="896" unicode="%"/><glyph d="M706 234T640 162L779 0H535L494 46Q390 -10 263 -10Q185 -10 127 12T38 76T7 172Q7 246 54 305T182 402Q153 448 153 493Q153 558 189 607T287 684T428 711Q531 711 586 667T641 555Q641 541 638 524H436Q437 527 437 533Q437 547 427 554T404 562Q386 562 373 551T360 519Q360 487 391 452L525 296Q545 326 561 357L565 366H780L766 340Q706 234 640 162ZM344 165T379 175L280 286Q259 271 247 253T235 217Q235 195 255 180T312 165Q344 165 379 175Z" glyph-name="ampersand" horiz-adv-x="837" unicode="&amp;"/><glyph d="M312 803L257 568H109L137 803H312Z" glyph-name="quotesingle" horiz-adv-x="265" unicode="'"/><glyph d="M112 -161T80 -60T48 164Q48 298 87 436T198 695T369 895H583L579 874Q484 789 413 678T303 442T263 193Q263 77 295 -27T388 -209L385 -229H171Q112 -161 80 -60Z" glyph-name="parenleft" horiz-adv-x="463" unicode="("/><glyph d="M-102 -229L-99 -209Q-4 -125 68 -14T179 223T218 472Q218 588 186 692T92 874L96 895H310Q369 827 401 726T433 502Q433 368 394 230T283 -29T112 -229H-102Z" glyph-name="parenright" horiz-adv-x="463" unicode=")"/><glyph d="M495 709L541 588L424 552L529 518L433 391L361 477L369 360H230L278 477L178 390L126 519L243 555L140 587L228 708L305 625L295 744H437L387 625L495 709Z" glyph-name="asterisk" horiz-adv-x="561" unicode="*"/><glyph d="M523 238H374L347 85H134L161 238H12L48 441H197L224 595H437L410 441H559L523 238Z" glyph-name="plus" horiz-adv-x="551" unicode="+"/><glyph d="M290 185L133 -118H-13L70 185H290Z" glyph-name="comma" horiz-adv-x="348" unicode=","/><glyph d="M513 433L480 250H14L47 433H513Z" glyph-name="hyphen" horiz-adv-x="576" unicode="-"/><glyph d="M57 -8T28 17T-2 82Q-2 117 17 147T71 194T148 212Q199 212 228 187T257 121Q257 86 238 57T185 10T109 -8Q57 -8 28 17Z" glyph-name="period" horiz-adv-x="319" unicode="."/><glyph d="M561 955L92 -198H-121L349 955H561Z" glyph-name="slash" horiz-adv-x="399" unicode="/"/><glyph d="M75 527T166 624T409 721Q535 721 595 654T656 467Q656 416 646 363Q617 199 526 102T283 4Q157 4 97 71T36 259Q36 301 46 363Q75 527 166 624ZM435 403T435 435Q435 511 372 511Q322 511 300 473T264 363Q256 321 256 291Q256 254 270 234T320 214Q369 214 391 253T427 363Q435 403 435 435Z" glyph-name="zero" horiz-adv-x="662" unicode="0"/><glyph d="M48 500L85 708H424L299 0H66L154 500H48Z" glyph-name="one" horiz-adv-x="399" unicode="1"/><glyph d="M158 276T248 353T349 491Q351 505 351 509Q351 541 323 541Q303 541 292 524T271 458H56Q85 595 172 661T373 727Q483 727 533 680T583 557Q583 543 579 513Q562 418 485 334T300 189H529L497 10H-20L9 177Q158 276 248 353Z" glyph-name="two" horiz-adv-x="566" unicode="2"/><glyph d="M108 621T185 684T385 747Q489 747 544 701T600 580Q600 563 597 543Q585 473 545 433T461 380V376Q554 339 554 246Q554 229 551 209Q534 111 457 52T266 -7Q152 -7 89 40T26 190Q26 214 31 249H247Q243 233 243 218Q243 176 288 176Q309 176 324 193T340 238Q340 260 323 271T268 282H231L263 461H299Q366 457 376 515Q377 520 377 530Q377 564 348 564Q326 564 316 547T300 502H84Q108 621 185 684Z" glyph-name="three" horiz-adv-x="615" unicode="3"/><glyph d="M22 110L54 295L427 720H666L593 302H665L631 110H559L539 0H315L335 110H22ZM416 467L279 302H387L416 467Z" glyph-name="four" horiz-adv-x="704" unicode="4"/><glyph d="M629 536H339L324 452Q372 489 448 489Q534 489 577 440T620 310Q620 285 615 253Q593 133 514 67T317 0Q204 0 142 50T80 185Q80 206 85 234H301L300 225Q300 211 309 201T340 190Q365 190 380 208T401 257Q403 269 403 274Q403 295 392 305T359 316Q338 316 326 306T310 283H94L173 731H663L629 536Z" glyph-name="five" horiz-adv-x="660" unicode="5"/><glyph d="M405 539T396 553T362 567Q324 567 305 529T271 409Q295 437 331 453T411 469Q493 469 540 426T587 299Q587 271 581 239Q561 126 480 60T280 -7Q157 -7 105 53T52 223Q52 284 66 360Q90 496 132 580T242 704T407 744Q514 744 564 689T614 547Q614 522 612 509H405Q405 539 396 553ZM296 299T276 280T256 227Q256 205 269 194T306 183Q334 183 352 197T375 242Q376 246 376 254Q376 276 363 287T326 299Q296 299 276 280Z" glyph-name="six" horiz-adv-x="633" unicode="6"/><glyph d="M550 554L208 0H-20L319 527H63L97 717H579L550 554Z" glyph-name="seven" horiz-adv-x="512" unicode="7"/><glyph d="M109 441T109 516Q109 534 112 553Q121 603 158 649T261 726T412 756Q490 756 542 732T618 668T643 583Q643 568 640 553Q622 451 528 402Q602 354 602 267Q602 245 598 225Q585 149 537 96T421 16T276 -11Q171 -11 103 39T34 180Q34 204 38 225Q59 343 170 402Q109 441 109 516ZM360 576T344 560T323 515Q321 503 321 498Q321 477 331 467T359 456Q379 456 394 471T415 515Q417 527 417 532Q417 553 407 564T380 576Q360 576 344 560ZM298 307T276 283T254 224Q254 200 267 185T308 170Q343 170 364 194T386 253Q386 278 372 292T332 307Q298 307 276 283Z" glyph-name="eight" horiz-adv-x="657" unicode="8"/><glyph d="M245 198T255 184T290 170Q327 170 345 207T378 328Q355 300 319 284T239 268Q157 268 110 311T62 439Q62 467 68 498Q88 611 169 677T369 744Q493 744 546 686T599 519Q599 463 586 387Q551 191 475 92T259 -7Q184 -7 134 21T59 96T35 199Q35 208 37 228H244Q245 198 255 184ZM354 438T374 457T394 510Q394 532 381 543T344 554Q316 554 298 540T275 495Q274 490 274 482Q274 461 287 450T324 438Q354 438 374 457Z" glyph-name="nine" horiz-adv-x="597" unicode="9"/><glyph d="M57 -8T28 17T-2 82Q-2 117 17 147T71 194T148 212Q199 212 228 187T257 121Q257 86 238 57T185 10T109 -8Q57 -8 28 17ZM57 388T28 413T-2 478Q-2 513 17 543T71 590T148 608Q199 608 228 583T257 517Q257 482 238 453T185 406T109 388Q57 388 28 413Z" glyph-name="colon" horiz-adv-x="319" unicode=":"/><glyph d="M142 373T113 398T83 463Q83 498 102 528T156 575T233 593Q284 593 313 568T342 502Q342 467 323 438T270 391T194 373Q142 373 113 398ZM539 185L382 -118H236L319 185H539Z" glyph-name="semicolon" horiz-adv-x="385" unicode=";"/><glyph d="M172 125L30 340L248 556H525L307 340L449 125H172Z" glyph-name="less" horiz-adv-x="497" unicode="&lt;"/><glyph d="M659 580L623 379H37L73 580H659ZM609 300L574 99H-12L23 300H609Z" glyph-name="equal" horiz-adv-x="626" unicode="="/><glyph d="M68 556H345L487 340L269 125H-8L210 340L68 556Z" glyph-name="greater" horiz-adv-x="497" unicode="&gt;"/><glyph d="M456 773T513 730T570 603Q570 578 566 555Q550 467 482 413T316 357L298 286H102L133 498H217Q278 498 311 511T349 556L350 564Q350 578 342 585T321 593Q301 593 289 581T274 548H65Q73 610 109 661T209 742T359 773Q456 773 513 730ZM99 -8T70 17T40 82Q40 117 59 147T113 194T190 212Q241 212 270 187T299 121Q299 86 280 57T227 10T151 -8Q99 -8 70 17Z" glyph-name="question" horiz-adv-x="538" unicode="?"/><glyph d="M750 687T843 640T986 509T1037 315Q1037 225 1005 153T911 38T762 -4Q707 -4 669 16T613 73Q588 34 547 14T452 -7Q379 -7 338 35T297 153Q297 224 325 287T403 388T515 427Q556 427 583 410T621 364L631 422H803L764 201Q761 188 761 176Q761 138 793 138Q833 138 853 186T874 309Q874 378 842 430T750 512T610 541Q502 541 413 489T272 347T220 152Q220 38 286 -29T467 -96Q569 -96 653 -60L691 -199Q587 -245 457 -245Q338 -245 248 -198T109 -65T60 136Q60 295 135 420T340 616T629 687Q750 687 843 640ZM550 147T570 169T591 224Q591 247 579 260T548 274Q522 274 502 252T482 195Q482 173 493 160T525 147Q550 147 570 169Z" glyph-name="at" horiz-adv-x="1114" unicode="@"/><glyph d="M473 107H237L183 0H-50L334 708H590L723 0H489L473 107ZM449 274L420 471L321 274H449Z" glyph-name="A" horiz-adv-x="773" unicode="A"/><glyph d="M675 462T635 420T539 363Q591 350 618 314T646 228Q646 212 643 194Q627 101 557 51T371 0H0L125 708H486Q582 708 635 671T689 561Q689 544 686 524Q675 462 635 420ZM453 486T453 494Q453 514 441 523T402 532H316L298 432H384Q414 432 431 444T452 481Q453 486 453 494ZM423 232T423 240Q423 278 372 278H271L254 178H355Q385 178 401 189T422 227Q423 232 423 240Z" glyph-name="B" horiz-adv-x="684" unicode="B"/><glyph d="M61 460T118 542T262 669T456 715Q548 715 614 681T716 583T750 436H516Q506 471 480 490T416 510Q360 510 320 468T268 355Q264 335 264 312Q264 260 289 230T362 200Q400 200 433 219T488 274H722Q692 190 635 127T500 30T329 -5Q236 -5 170 29T70 127T36 275Q36 316 43 355Q61 460 118 542Z" glyph-name="C" horiz-adv-x="753" unicode="C"/><glyph d="M518 708T588 673T695 574T732 427Q732 394 726 356Q708 255 649 174T498 47T295 0H0L125 708H420Q518 708 588 673ZM385 198T436 239T501 356Q504 376 504 393Q504 452 468 483T366 514H313L257 198H310Q385 198 436 239Z" glyph-name="D" horiz-adv-x="743" unicode="D"/><glyph d="M316 532L301 444H521L491 277H271L253 177H503L472 0H0L125 708H597L566 532H316Z" glyph-name="E" horiz-adv-x="556" unicode="E"/><glyph d="M625 708L594 532H316L299 434H499L469 267H269L222 0H0L125 708H625Z" glyph-name="F" horiz-adv-x="575" unicode="F"/><glyph d="M61 460T119 542T266 669T464 715Q557 715 622 685T720 598T750 466H516Q507 487 485 498T429 510Q365 510 323 468T268 355Q263 325 263 306Q263 190 398 190Q475 190 533 252H356L383 409H744L705 187Q645 108 554 52T339 -5Q243 -5 175 30T72 128T36 277Q36 317 43 355Q61 460 119 542Z" glyph-name="G" horiz-adv-x="752" unicode="G"/><glyph d="M780 708L655 0H433L482 276H271L222 0H0L125 708H347L302 453H513L558 708H780Z" glyph-name="H" horiz-adv-x="755" unicode="H"/><glyph d="M347 708L222 0H0L125 708H347Z" glyph-name="I" horiz-adv-x="322" unicode="I"/><glyph d="M619 708L539 251Q516 124 438 59T240 -7Q129 -7 66 46T2 204Q2 235 8 271H227Q224 253 224 240Q224 193 265 193Q285 193 298 206T318 251L398 708H619Z" glyph-name="J" horiz-adv-x="590" unicode="J"/><glyph d="M496 369L692 0H428L276 308L222 0H0L125 708H347L294 410L550 708H801L496 369Z" glyph-name="K" horiz-adv-x="755" unicode="K"/><glyph d="M252 168H466L436 0H0L125 708H347L252 168Z" glyph-name="L" horiz-adv-x="506" unicode="L"/><glyph d="M976 708L851 0H630L692 352L521 0H331L284 355L222 0H0L125 708H397L478 282L705 708H976Z" glyph-name="M" horiz-adv-x="951" unicode="M"/><glyph d="M679 0H457L285 356L222 0H0L125 708H347L518 346L582 708H804L679 0Z" glyph-name="N" horiz-adv-x="779" unicode="N"/><glyph d="M257 -7T189 30T84 134T47 289Q47 416 99 513T246 665T464 720Q556 720 624 684T730 581T767 427Q767 301 715 202T567 48T347 -7Q257 -7 189 30ZM433 200T471 227T530 300T550 399Q550 454 521 484T436 515Q384 515 345 488T286 416T265 317Q265 262 294 231T381 200Q433 200 471 227Z" glyph-name="O" horiz-adv-x="788" unicode="O"/><glyph d="M649 398T609 344T503 257T350 225H262L222 0H0L125 708H435Q548 708 607 657T666 517Q666 495 661 465Q649 398 609 344ZM424 400T436 465Q438 477 438 482Q438 530 379 530H316L293 400H356Q424 400 436 465Z" glyph-name="P" horiz-adv-x="649" unicode="P"/><glyph d="M767 313T724 221T602 71L708 -115H446L399 -4Q374 -7 347 -7Q257 -7 189 30T84 134T47 289Q47 416 99 513T246 665T464 720Q556 720 624 684T730 581T767 427Q767 313 724 221ZM265 262T294 231T381 200Q433 200 471 227T530 300T550 399Q550 454 521 484T436 515Q384 515 345 488T286 416T265 317Q265 262 294 231Z" glyph-name="Q" horiz-adv-x="788" unicode="Q"/><glyph d="M569 708T628 657T687 521Q687 496 683 476Q670 404 621 350T494 271L600 0H356L267 254L222 0H0L125 708H455Q569 708 628 657ZM293 402H381Q413 402 431 416T456 462Q457 467 457 475Q457 497 443 509T402 522H314L293 402Z" glyph-name="R" horiz-adv-x="670" unicode="R"/><glyph d="M174 -7T97 45T19 197Q19 207 21 227H257Q254 196 266 181T308 166Q326 166 338 175T350 201Q350 225 327 241T251 279Q194 303 158 325T94 385T67 480Q67 555 104 609T209 692T362 720Q439 720 499 696T594 627T629 519Q629 511 627 491H388Q390 503 390 507Q390 526 379 536T349 547Q332 547 321 537T310 511Q310 489 333 473T406 432Q463 405 500 381T565 318T592 221Q592 156 558 104T458 23T304 -7Q174 -7 97 45Z" glyph-name="S" horiz-adv-x="642" unicode="S"/><glyph d="M681 708L650 532H462L368 0H146L240 532H54L85 708H681Z" glyph-name="T" horiz-adv-x="616" unicode="T"/><glyph d="M342 708L272 309Q269 293 269 276Q269 242 287 223T344 203Q392 203 420 231T457 309L527 708H748L678 309Q660 205 607 134T476 28T305 -7Q186 -7 115 55T44 234Q44 271 51 309L121 708H342Z" glyph-name="U" horiz-adv-x="719" unicode="U"/><glyph d="M311 708L371 221L602 708H838L475 0H188L75 708H311Z" glyph-name="V" horiz-adv-x="763" unicode="V"/><glyph d="M1145 708L858 0H582L571 402L418 0H142L105 708H344L330 262L504 708H746L763 262L906 708H1145Z" glyph-name="W" horiz-adv-x="1100" unicode="W"/><glyph d="M528 350L714 0H451L354 184L213 0H-40L257 365L75 708H338L432 531L567 708H820L528 350Z" glyph-name="X" horiz-adv-x="764" unicode="X"/><glyph d="M805 708L464 215L426 0H204L242 215L75 708H329L398 457L555 708H805Z" glyph-name="Y" horiz-adv-x="730" unicode="Y"/><glyph d="M277 177H561L530 0H0L30 167L374 532H94L125 708H655L626 541L277 177Z" glyph-name="Z" horiz-adv-x="630" unicode="Z"/><glyph d="M585 895L554 717H380L244 -51H418L387 -229H5L203 895H585Z" glyph-name="bracketleft" horiz-adv-x="533" unicode="["/><glyph d="M225 -198L189 955H401L437 -198H225Z" glyph-name="backslash" horiz-adv-x="592" unicode="\"/><glyph d="M348 -229H-34L-3 -51H171L307 717H133L164 895H546L348 -229Z" glyph-name="bracketright" horiz-adv-x="533" unicode="]"/><glyph d="M224 162H4L347 711H565L712 162H492L411 460L224 162Z" glyph-name="asciicircum" horiz-adv-x="758" unicode="^"/><glyph d="M667 -42L629 -258H-46L-8 -42H667Z" glyph-name="underscore" horiz-adv-x="764" unicode="_"/><glyph d="M352 750L325 602L83 696L112 860L352 750Z" glyph-name="grave" horiz-adv-x="324" unicode="`"/><glyph d="M36 371T78 436T179 536T304 571Q359 571 395 549T445 487L459 564H680L580 0H359L373 77Q345 38 301 16T202 -7Q117 -7 65 50T13 208Q13 246 20 282Q36 371 78 436ZM411 291T411 306Q411 340 393 358T344 377Q308 377 281 352T245 282Q243 273 243 258Q243 224 261 206T310 187Q346 187 373 212T409 282Q411 291 411 306Z" glyph-name="a" horiz-adv-x="680" unicode="a"/><glyph d="M336 526T379 548T478 571Q563 571 615 514T667 356Q667 318 660 282Q644 193 602 128T501 28T376 -7Q321 -7 286 15T236 77L222 0H0L131 740H353L308 487Q336 526 379 548ZM437 291T437 306Q437 340 419 358T370 377Q334 377 307 352T271 282Q269 273 269 258Q269 224 287 206T336 187Q372 187 399 212T435 282Q437 291 437 306Z" glyph-name="b" horiz-adv-x="680" unicode="b"/><glyph d="M36 370T84 435T203 536T359 571Q469 571 533 509T599 337H364Q357 381 320 381Q293 381 274 356T245 282Q241 254 241 245Q241 214 253 199T286 183Q324 183 344 227H579Q540 117 454 55T257 -7Q145 -7 80 52T14 218Q14 249 20 282Q36 370 84 435Z" glyph-name="c" horiz-adv-x="609" unicode="c"/><glyph d="M36 371T78 436T179 536T304 571Q359 571 394 549T444 487L489 740H711L580 0H358L372 77Q344 38 301 16T202 -7Q117 -7 65 50T13 208Q13 246 20 282Q36 371 78 436ZM411 291T411 306Q411 340 393 358T344 377Q308 377 281 352T245 282Q243 273 243 258Q243 224 261 206T310 187Q346 187 373 212T409 282Q411 291 411 306Z" glyph-name="d" horiz-adv-x="680" unicode="d"/><glyph d="M471 571T537 512T603 349Q603 320 597 287Q590 254 586 243H230Q229 237 229 226Q229 170 277 170Q314 170 335 203H570Q548 143 501 96T391 21T257 -7Q145 -7 80 52T14 218Q14 249 20 282Q36 370 84 435T203 536T359 571Q471 571 537 512ZM381 339T381 349Q381 373 366 385T328 397Q268 397 247 334H380Q381 339 381 349Z" glyph-name="e" horiz-adv-x="616" unicode="e"/><glyph d="M414 606T408 606Q382 606 367 596T343 564H425L392 379H309L242 0H20L87 379H27L60 564H120Q141 674 219 734T419 795Q433 795 465 793L432 604Q414 606 408 606Z" glyph-name="f" horiz-adv-x="385" unicode="f"/><glyph d="M359 571T395 549T445 487L459 564H680L582 10Q568 -69 528 -134T416 -238T243 -277Q114 -277 46 -220T-22 -62Q-22 -48 -21 -41H197Q199 -85 261 -85Q300 -85 325 -65T361 10L373 77Q345 38 301 16T202 -7Q117 -7 65 50T13 208Q13 246 20 282Q36 371 78 436T179 536T304 571Q359 571 395 549ZM411 291T411 306Q411 340 393 358T344 377Q308 377 281 352T245 282Q243 273 243 258Q243 224 261 206T310 187Q346 187 373 212T409 282Q411 291 411 306Z" glyph-name="g" horiz-adv-x="680" unicode="g"/><glyph d="M577 568T621 521T665 390Q665 360 659 327L601 0H380L433 299Q435 315 435 321Q435 352 418 369T369 386Q332 386 308 363T275 299V300L222 0H0L131 740H353L307 479Q340 519 388 543T495 568Q577 568 621 521Z" glyph-name="h" horiz-adv-x="697" unicode="h"/><glyph d="M168 609T139 634T109 699Q109 734 128 764T181 811T258 829Q309 829 338 804T368 737Q368 702 349 673T296 627T220 609Q168 609 139 634ZM322 564L222 0H0L100 564H322Z" glyph-name="i" horiz-adv-x="322" unicode="i"/><glyph d="M166 609T137 634T107 699Q107 734 126 764T179 811T256 829Q307 829 336 804T366 737Q366 702 347 673T294 627T218 609Q166 609 137 634ZM215 -39Q175 -270 -57 -270H-131L-98 -81H-55Q-33 -81 -22 -72T-7 -43L100 564H322L215 -39Z" glyph-name="j" horiz-adv-x="320" unicode="j"/><glyph d="M460 280L626 0H361L262 225L222 0H0L131 740H353L284 352L463 564H721L460 280Z" glyph-name="k" horiz-adv-x="676" unicode="k"/><glyph d="M353 740L222 0H0L131 740H353Z" glyph-name="l" horiz-adv-x="322" unicode="l"/><glyph d="M945 568T994 520T1044 387Q1044 359 1038 327L980 0H759L812 299Q813 305 813 316Q813 345 796 360T747 376Q711 376 687 357T655 303L601 0H380L433 299Q434 305 434 316Q434 345 417 360T368 376Q332 376 308 356T276 302L222 0H0L100 564H322L308 488Q339 524 384 546T485 568Q546 568 588 542T650 466Q689 511 741 539T853 568Q945 568 994 520Z" glyph-name="m" horiz-adv-x="1076" unicode="m"/><glyph d="M577 568T621 521T665 390Q665 360 659 327L601 0H380L433 299Q435 315 435 321Q435 352 418 369T369 386Q333 386 308 363T275 300L222 0H0L100 564H322L307 479Q340 519 388 543T495 568Q577 568 621 521Z" glyph-name="n" horiz-adv-x="697" unicode="n"/><glyph d="M192 -7T135 22T46 104T14 229Q14 327 60 405T188 527T369 571Q444 571 501 542T590 459T622 334Q622 236 576 158T449 37T267 -7Q192 -7 135 22ZM344 185T369 224T394 311Q394 345 378 362T335 379Q292 379 267 340T242 253Q242 219 258 202T301 185Q344 185 369 224Z" glyph-name="o" horiz-adv-x="636" unicode="o"/><glyph d="M336 526T379 548T478 571Q563 571 615 514T667 356Q667 318 660 282Q644 193 602 128T501 28T376 -7Q321 -7 286 15T236 77L175 -270H-47L100 564H322L308 487Q336 526 379 548ZM437 291T437 306Q437 340 419 358T370 377Q334 377 307 352T271 282Q269 273 269 258Q269 224 287 206T336 187Q372 187 399 212T435 282Q437 291 437 306Z" glyph-name="p" horiz-adv-x="680" unicode="p"/><glyph d="M34 361T79 427T189 530T319 568Q364 568 396 556T450 514L459 564H680L533 -270H312L370 62Q333 27 297 11T218 -6Q160 -6 114 21T40 99T13 217Q13 247 19 278Q34 361 79 427ZM411 291T411 306Q411 342 391 359T344 376Q314 376 284 352T244 278Q242 262 242 256Q242 219 262 203T310 187Q341 187 370 210T409 282Q411 291 411 306Z" glyph-name="q" horiz-adv-x="680" unicode="q"/><glyph d="M347 509T400 538T507 568L466 331H403Q340 331 307 309T263 231L222 0H0L100 564H322L304 460Q347 509 400 538Z" glyph-name="r" horiz-adv-x="467" unicode="r"/><glyph d="M184 -7T127 15T37 76T4 167Q4 186 6 195H219Q218 170 233 158T276 146Q293 146 305 154T318 173Q318 189 298 198T232 220Q174 236 136 253T69 303T40 391Q40 441 70 482T156 547T285 571Q365 571 422 544T509 471T536 369H339Q339 392 325 404T284 417Q267 417 256 410T244 391Q244 376 264 367T332 342Q391 325 429 309T497 260T526 177Q526 90 452 42T258 -7Q184 -7 127 15Z" glyph-name="s" horiz-adv-x="579" unicode="s"/><glyph d="M297 227Q296 223 296 217Q296 189 332 189H385L351 0H267Q70 0 70 167Q70 197 76 231L102 379H32L65 564H135L159 700H381L357 564H449L416 379H324L297 227Z" glyph-name="t" horiz-adv-x="436" unicode="t"/><glyph d="M697 564L597 0H375L390 85Q357 45 309 21T202 -4Q120 -4 76 43T32 174Q32 204 38 237L96 564H317L264 265Q262 249 262 243Q262 212 279 195T328 178Q364 178 389 201T422 264L475 564H697Z" glyph-name="u" horiz-adv-x="697" unicode="u"/><glyph d="M323 211L476 564H712L424 0H147L59 564H295L323 211Z" glyph-name="v" horiz-adv-x="671" unicode="v"/><glyph d="M956 564L722 0H472L460 318L332 0H82L49 564H269L256 221L389 564H626L642 217L751 564H956Z" glyph-name="w" horiz-adv-x="903" unicode="w"/><glyph d="M462 274L618 0H370L298 127L204 0H-40L202 297L50 564H298L370 436L465 564H709L462 274Z" glyph-name="x" horiz-adv-x="668" unicode="x"/><glyph d="M287 564L342 278L492 564H737L229 -270H-14L180 28L40 564H287Z" glyph-name="y" horiz-adv-x="677" unicode="y"/><glyph d="M246 184H481L448 0H-30L1 174L252 380H40L73 564H538L507 390L246 184Z" glyph-name="z" horiz-adv-x="518" unicode="z"/><glyph d="M85 423Q136 423 159 438T188 486Q193 511 193 581Q193 657 199 688Q216 787 286 841T462 895H538L507 718H473Q414 718 404 664Q402 654 398 586Q394 507 389 477Q379 419 346 381T256 333V331Q298 322 320 296T342 232Q342 189 309 82Q300 52 293 25T286 -15Q286 -54 337 -54H371L340 -231H264Q173 -231 121 -190T69 -70Q69 -38 79 1T110 98Q120 126 127 152T135 191Q135 216 116 229T53 242L85 423Z" glyph-name="braceleft" horiz-adv-x="484" unicode="{"/><glyph d="M167 -144H-55L116 828H338L167 -144Z" glyph-name="bar" horiz-adv-x="262" unicode="|"/><glyph d="M324 242T314 178Q310 155 310 92Q310 20 303 -24Q285 -123 215 -177T40 -231H-36L-5 -54H29Q60 -54 76 -40T97 0Q100 15 101 44T104 83Q106 152 112 187Q123 246 156 283T246 331V333Q160 350 160 440Q160 458 163 477Q169 511 192 583Q211 643 214 664Q216 674 216 679Q216 718 165 718H131L162 895H238Q330 895 381 853T433 733Q433 709 429 688Q420 641 394 572Q380 530 374 508T367 471Q367 446 385 435T449 423L417 242Q324 242 314 178Z" glyph-name="braceright" horiz-adv-x="484" unicode="}"/><glyph d="M47 317T120 381T284 445Q320 445 348 435T409 405Q435 391 450 385T483 378Q510 378 526 393T554 447H720Q675 311 602 247T438 183Q402 183 374 193T313 223Q287 237 271 243T238 250Q211 250 195 234T166 181H2Q47 317 120 381Z" glyph-name="asciitilde" horiz-adv-x="711" unicode="~"/><glyph glyph-name="uni00A0" horiz-adv-x="170"/><glyph d="M331 576T360 551T390 486Q390 451 371 421T317 374T240 356Q189 356 160 381T131 447Q131 482 150 511T203 558T279 576Q331 576 360 551ZM24 -187L133 287H323L266 -187H24Z" glyph-name="exclamdown" horiz-adv-x="455" unicode="¡"/><glyph d="M277 337T256 315T227 253Q225 244 225 228Q225 170 281 170Q299 170 317 179T342 205H545Q523 112 448 57T278 -7L265 -83H203L216 -7Q119 1 65 52T10 194Q10 228 15 254Q36 370 113 437T307 513L321 589H383L369 513Q454 506 509 458T564 328Q564 311 563 302H360Q356 321 342 329T311 337Q277 337 256 315Z" glyph-name="cent" horiz-adv-x="579" unicode="¢"/><glyph d="M453 531Q456 591 408 591Q357 591 344 522Q342 506 342 496Q342 475 348 421H517L491 274H340Q315 204 259 165H594L564 -6H12L4 98Q56 134 86 175T132 274H30L56 421H133Q131 449 131 466Q131 507 138 548Q156 652 237 711T432 771Q545 771 602 716T659 567Q659 555 657 531H453Z" glyph-name="sterling" horiz-adv-x="679" unicode="£"/><glyph d="M529 491Q552 457 552 412Q552 397 549 379Q537 314 491 268L532 219L438 138L382 206Q340 193 288 193Q236 193 196 207L115 138L49 219L110 271Q90 303 90 345Q90 361 93 379Q105 444 150 488L106 541L200 622L260 549Q304 561 353 561Q398 561 439 550L523 622L589 541L529 491ZM262 372T262 363Q262 341 275 331T311 320Q336 320 354 334T379 377Q380 382 380 392Q380 415 367 425T331 436Q306 436 287 422T263 377Q262 372 262 363Z" glyph-name="currency" horiz-adv-x="603" unicode="¤"/><glyph d="M628 452H705L680 308H528L503 272H673L648 128H449L426 0H204L227 128H26L51 272H223L210 308H58L83 452H162L75 708H329L392 424L555 708H805L628 452Z" glyph-name="yen" horiz-adv-x="730" unicode="¥"/><glyph d="M201 828H423L347 398H125L201 828ZM252 -144H30L106 287H328L252 -144Z" glyph-name="brokenbar" horiz-adv-x="432" unicode="¦"/><glyph d="M364 513Q366 531 366 536Q366 567 349 567Q340 567 334 559T328 534Q328 511 355 490T458 427Q570 359 570 270Q570 253 568 244Q560 197 532 162T446 101Q482 52 482 -9Q482 -28 479 -44Q464 -130 390 -182T200 -235Q100 -235 49 -185T-2 -51Q-2 -34 -1 -25H218Q216 -43 216 -49Q216 -79 232 -79Q241 -79 247 -71T254 -47Q254 -24 228 -3T124 62Q12 126 12 218Q12 235 14 244Q34 349 135 388Q100 438 100 497Q100 516 103 532Q118 618 192 670T382 723Q482 723 533 673T584 539Q584 522 583 513H364ZM334 256T334 262Q334 279 326 289T303 299Q280 299 265 279T250 229Q250 211 258 200T281 189Q300 189 314 204T332 244Q334 256 334 262Z" glyph-name="section" horiz-adv-x="595" unicode="§"/><glyph d="M124 620T104 639T83 689Q83 732 113 762T185 792Q218 792 238 773T258 721Q258 679 228 650T155 620Q124 620 104 639ZM349 620T329 639T308 689Q308 732 338 762T410 792Q443 792 463 773T483 721Q483 679 453 650T380 620Q349 620 329 639Z" glyph-name="dieresis" horiz-adv-x="417" unicode="¨"/><glyph d="M554 720T621 685T725 585T761 435Q761 396 754 358Q736 253 677 170T528 41T335 -6Q244 -6 177 30T73 131T36 283Q36 322 43 358Q62 463 121 545T270 674T463 720Q554 720 621 685ZM364 655T293 619T176 515T113 358Q107 322 107 290Q107 183 170 121T347 59Q434 59 505 96T623 201T685 358Q691 394 691 428Q691 534 628 594T452 655Q364 655 293 619ZM340 578T268 518T177 357Q173 334 173 309Q173 228 224 182T364 136Q446 136 513 185T608 316H424Q408 281 380 281Q345 281 345 328Q345 341 348 357Q355 395 370 414T407 433Q434 433 438 398H622Q624 452 602 493T537 556T442 578Q340 578 268 518Z" glyph-name="copyright" horiz-adv-x="771" unicode="©"/><glyph d="M79 616T133 664T260 712Q300 712 324 699T363 658L372 708H536L474 355H310L319 404Q294 376 266 363T198 350Q136 350 98 385T60 486Q60 509 64 530Q79 616 133 664ZM342 561T329 571T296 582Q270 582 251 565T232 518Q232 499 244 490T278 481Q304 481 323 497T342 542Q342 561 329 571Z" glyph-name="ordfeminine" horiz-adv-x="481" unicode="ª"/><glyph d="M93 120L47 295L155 470H356L246 295L294 120H93ZM348 120L302 295L410 470H611L501 295L549 120H348Z" glyph-name="guillemotleft" horiz-adv-x="618" unicode="«"/><glyph d="M758 448L707 155H485L507 282H21L50 448H758Z" glyph-name="logicalnot" horiz-adv-x="794" unicode="¬"/><glyph d="M513 433L480 250H14L47 433H513Z" glyph-name="uni00AD" horiz-adv-x="576" unicode="­"/><glyph d="M419 721T471 672T523 543Q523 518 519 498Q508 434 470 383T376 304T255 275Q168 275 116 324T64 454Q64 478 68 498Q79 563 117 613T211 692T333 721Q419 721 471 672ZM451 516T451 533Q451 590 417 623T322 656Q252 656 202 613T139 498Q136 480 136 464Q136 408 170 374T266 340Q335 340 385 384T448 498Q451 516 451 533ZM368 606T385 592T403 552Q403 528 390 508T356 478L388 396H297L275 463L263 396H180L217 606H337Q368 606 385 592ZM282 519H299Q311 519 314 530V532Q314 541 303 541H286L282 519Z" glyph-name="registered" horiz-adv-x="511" unicode="®"/><glyph d="M527 769L501 622H70L96 769H527Z" glyph-name="overscore" horiz-adv-x="451" unicode="¯"/><glyph d="M83 618T152 666T325 715Q416 715 468 677T520 569Q520 551 517 533Q502 448 434 398T264 347Q173 347 119 388T64 500Q64 517 67 533Q83 618 152 666ZM350 545T350 550Q350 576 337 588T306 600Q283 600 263 583T236 531Q234 519 234 515Q234 490 249 477T285 464Q306 464 324 480T348 531Q350 545 350 550Z" glyph-name="degree" horiz-adv-x="496" unicode="°"/><glyph d="M393 344L385 297H534L498 96H-13L23 297H172L180 344H31L66 545H215L230 630H443L428 545H577L542 344H393Z" glyph-name="plusminus" horiz-adv-x="551" unicode="±"/><glyph d="M394 717T428 690T462 624Q462 582 425 553T300 492L257 477H427L405 352H60L82 474L229 544Q280 567 285 595V597Q285 603 278 603Q261 603 254 569H91Q107 635 168 676T320 717Q394 717 428 690Z" glyph-name="twosuperior" horiz-adv-x="422" unicode="²"/><glyph d="M82 636T134 676T286 717Q358 717 396 693T435 627Q435 551 346 537L345 533Q383 524 399 509T416 468Q416 458 415 452Q406 402 356 376T225 349Q128 349 88 378T47 464Q47 476 48 482H220Q219 479 219 474Q219 462 231 462Q243 462 247 483Q248 486 248 492Q248 508 225 508H195L204 562H225Q239 562 246 568T256 588L257 594Q257 605 247 605Q240 605 236 599T228 577H72Q82 636 134 676Z" glyph-name="threesuperior" horiz-adv-x="403" unicode="³"/><glyph d="M342 696L66 602L93 750L371 860L342 696Z" glyph-name="acute" horiz-adv-x="279" unicode="´"/><glyph d="M726 564L626 0H404L418 77Q387 42 344 20T246 -4L199 -270H-22L125 564H346L293 266Q292 260 292 249Q292 220 309 204T358 188Q395 188 420 209T451 266V264L504 564H726Z" glyph-name="uni00B5" horiz-adv-x="751" unicode="µ"/><glyph d="M653 0H476L572 542H514L418 0H242L289 265H258Q153 265 104 315T54 442Q54 466 58 486Q68 544 101 594T194 676T336 708H778L653 0Z" glyph-name="paragraph" horiz-adv-x="778" unicode="¶"/><glyph d="M72 187T43 212T13 277Q13 312 32 342T86 389T163 407Q214 407 243 382T272 316Q272 281 253 252T200 205T124 187Q72 187 43 212Z" glyph-name="middot" horiz-adv-x="349" unicode="·"/><glyph d="M190 -27T224 -50T259 -123Q259 -140 257 -149Q245 -214 195 -242T85 -271H-88L-68 -158H82Q94 -158 102 -154T111 -142V-139Q111 -127 88 -127H3L27 7H155L149 -27Q190 -27 224 -50Z" glyph-name="cedilla" horiz-adv-x="343" unicode="¸"/><glyph d="M72 577L94 704H324L262 352H98L138 577H72Z" glyph-name="onesuperior" horiz-adv-x="285" unicode="¹"/><glyph d="M73 581T106 621T192 685T310 709Q398 709 447 668T497 561Q497 546 494 529Q485 478 452 437T365 371T246 347Q159 347 110 389T61 497Q61 513 64 529Q73 581 106 621ZM328 534T328 543Q328 563 317 573T288 584Q264 584 247 566T229 514Q229 494 240 484T269 473Q290 473 306 487T327 529Q328 534 328 543Z" glyph-name="ordmasculine" horiz-adv-x="470" unicode="º"/><glyph d="M132 295L83 470H285L330 295L223 120H21L132 295ZM387 295L338 470H540L585 295L478 120H276L387 295Z" glyph-name="guillemotright" horiz-adv-x="618" unicode="»"/><glyph d="M789 708L277 0H60L573 708H789ZM97 577L119 704H349L287 352H123L163 577H97ZM818 58H783L772 0H607L618 58H415L429 142L607 351H834L798 146H833L818 58ZM660 250L584 151H643L660 250Z" glyph-name="onequarter" horiz-adv-x="879" unicode="¼"/><glyph d="M800 711L277 0H60L584 711H800ZM163 577H97L119 704H349L287 352H123L163 577ZM848 364T882 337T916 271Q916 229 879 200T754 139L711 124H881L859 -1H514L536 121L683 191Q734 214 739 242V244Q739 250 732 250Q715 250 708 216H545Q561 282 622 323T774 364Q848 364 882 337Z" glyph-name="onehalf" horiz-adv-x="928" unicode="½"/><glyph d="M135 636T187 676T339 717Q411 717 449 693T488 627Q488 551 399 537L398 533Q436 524 452 509T469 468Q469 458 468 452Q459 402 409 376T278 349Q181 349 141 378T100 464Q100 476 101 482H273Q272 479 272 474Q272 462 284 462Q296 462 300 483Q301 486 301 492Q301 508 278 508H248L257 562H278Q292 562 299 568T309 588L310 594Q310 605 300 605Q293 605 289 599T281 577H125Q135 636 187 676ZM923 711L427 0H211L706 711H923ZM970 58H935L924 0H760L771 58H567L581 142L739 351H986L950 146H985L970 58ZM817 270L736 146H795L817 270Z" glyph-name="threequarters" horiz-adv-x="1024" unicode="¾"/><glyph d="M437 581T466 556T496 491Q496 456 477 426T423 379T346 361Q295 361 266 386T237 452Q237 487 256 516T309 563T385 581Q437 581 466 556ZM80 -200T23 -157T-34 -30Q-34 -5 -30 18Q-14 106 54 160T220 216L238 287H434L403 75H319Q258 75 225 62T187 17L186 9Q186 -5 194 -12T215 -20Q235 -20 247 -8T262 25H471Q463 -37 427 -88T327 -169T177 -200Q80 -200 23 -157Z" glyph-name="questiondown" horiz-adv-x="538" unicode="¿"/><glyph d="M473 107H237L183 0H-50L334 708H590L723 0H489L473 107ZM449 274L420 471L321 274H449ZM624 897L597 749L355 843L384 1007L624 897Z" glyph-name="Agrave" horiz-adv-x="773" unicode="À"/><glyph d="M473 107H237L183 0H-50L334 708H590L723 0H489L473 107ZM449 274L420 471L321 274H449ZM614 843L338 749L365 897L643 1007L614 843Z" glyph-name="Aacute" horiz-adv-x="773" unicode="Á"/><glyph d="M473 107H237L183 0H-50L334 708H590L723 0H489L473 107ZM449 274L420 471L321 274H449ZM483 827L302 739L327 883L508 968L658 883L633 739L483 827Z" glyph-name="Acircumflex" horiz-adv-x="773" unicode="Â"/><glyph d="M473 107H237L183 0H-50L334 708H590L723 0H489L473 107ZM449 274L420 471L321 274H449ZM270 852T317 893T429 935Q453 935 472 928T514 908Q533 898 543 894T565 889Q602 889 617 936H726Q694 843 647 802T535 761Q511 761 492 768T450 788Q430 798 420 802T398 806Q362 806 345 759H237Q270 852 317 893Z" glyph-name="Atilde" horiz-adv-x="773" unicode="Ã"/><glyph d="M473 107H237L183 0H-50L334 708H590L723 0H489L473 107ZM449 274L420 471L321 274H449ZM328 767T308 786T287 836Q287 879 317 909T389 939Q422 939 442 920T462 868Q462 826 432 797T359 767Q328 767 308 786ZM553 767T533 786T512 836Q512 879 542 909T614 939Q647 939 667 920T687 868Q687 826 657 797T584 767Q553 767 533 786Z" glyph-name="Adieresis" horiz-adv-x="773" unicode="Ä"/><glyph d="M473 107H237L183 0H-50L334 708H590L723 0H489L473 107ZM449 274L420 471L321 274H449ZM370 932T414 968T514 1004Q563 1004 594 976T626 900Q626 852 604 816T546 760T468 740Q418 740 388 768T357 845Q357 863 359 872Q370 932 414 968ZM538 899T527 909T499 919Q476 919 460 904T444 863Q444 846 455 836T483 825Q505 825 521 841T538 882Q538 899 527 909Z" glyph-name="Aring" horiz-adv-x="773" unicode="Å"/><glyph d="M756 532L741 447H951L922 280H712L693 177H933L902 0H440L457 97H253L191 0H-50L414 708H1027L996 532H756ZM487 264L535 537L360 264H487Z" glyph-name="AE" horiz-adv-x="986" unicode="Æ"/><glyph d="M360 510T320 468T268 355Q264 335 264 312Q264 260 289 230T362 200Q400 200 433 219T488 274H722Q683 163 597 90T396 0H401L395 -34Q436 -34 470 -57T505 -130Q505 -147 503 -156Q491 -221 441 -249T331 -278H158L178 -165H328Q340 -165 348 -161T357 -149V-146Q357 -134 334 -134H249L273 -1Q160 15 98 88T36 275Q36 316 43 355Q61 460 118 542T262 669T456 715Q548 715 614 681T716 583T750 436H516Q506 471 480 490T416 510Q360 510 320 468Z" glyph-name="Ccedilla" horiz-adv-x="753" unicode="Ç"/><glyph d="M316 532L301 444H521L491 277H271L253 177H503L472 0H0L125 708H597L566 532H316ZM519 897L492 749L250 843L279 1007L519 897Z" glyph-name="Egrave" horiz-adv-x="556" unicode="È"/><glyph d="M316 532L301 444H521L491 277H271L253 177H503L472 0H0L125 708H597L566 532H316ZM509 843L233 749L260 897L538 1007L509 843Z" glyph-name="Eacute" horiz-adv-x="556" unicode="É"/><glyph d="M316 532L301 444H521L491 277H271L253 177H503L472 0H0L125 708H597L566 532H316ZM378 827L197 739L222 883L403 968L553 883L528 739L378 827Z" glyph-name="Ecircumflex" horiz-adv-x="556" unicode="Ê"/><glyph d="M316 532L301 444H521L491 277H271L253 177H503L472 0H0L125 708H597L566 532H316ZM223 767T203 786T182 836Q182 879 212 909T284 939Q317 939 337 920T357 868Q357 826 327 797T254 767Q223 767 203 786ZM448 767T428 786T407 836Q407 879 437 909T509 939Q542 939 562 920T582 868Q582 826 552 797T479 767Q448 767 428 786Z" glyph-name="Edieresis" horiz-adv-x="556" unicode="Ë"/><glyph d="M347 708L222 0H0L125 708H347ZM399 897L372 749L130 843L159 1007L399 897Z" glyph-name="Igrave" horiz-adv-x="322" unicode="Ì"/><glyph d="M347 708L222 0H0L125 708H347ZM389 843L113 749L140 897L418 1007L389 843Z" glyph-name="Iacute" horiz-adv-x="322" unicode="Í"/><glyph d="M347 708L222 0H0L125 708H347ZM258 827L77 739L102 883L283 968L433 883L408 739L258 827Z" glyph-name="Icircumflex" horiz-adv-x="322" unicode="Î"/><glyph d="M347 708L222 0H0L125 708H347ZM103 767T83 786T62 836Q62 879 92 909T164 939Q197 939 217 920T237 868Q237 826 207 797T134 767Q103 767 83 786ZM328 767T308 786T287 836Q287 879 317 909T389 939Q422 939 442 920T462 868Q462 826 432 797T359 767Q328 767 308 786Z" glyph-name="Idieresis" horiz-adv-x="322" unicode="Ï"/><glyph d="M518 708T588 673T695 574T732 427Q732 394 726 356Q708 255 649 174T498 47T295 0H0L47 268H-2L29 444H78L125 708H420Q518 708 588 673ZM504 376T504 393Q504 452 468 483T366 514H313L301 444H431L400 268H269L257 198H310Q385 198 436 239T501 356Q504 376 504 393Z" glyph-name="Eth" horiz-adv-x="743" unicode="Ð"/><glyph d="M679 0H457L285 356L222 0H0L125 708H347L518 346L582 708H804L679 0ZM272 852T319 893T431 935Q455 935 474 928T516 908Q535 898 545 894T567 889Q604 889 619 936H728Q696 843 649 802T537 761Q513 761 494 768T452 788Q432 798 422 802T400 806Q364 806 347 759H239Q272 852 319 893Z" glyph-name="Ntilde" horiz-adv-x="779" unicode="Ñ"/><glyph d="M257 -7T189 30T84 134T47 289Q47 416 99 513T246 665T464 720Q556 720 624 684T730 581T767 427Q767 301 715 202T567 48T347 -7Q257 -7 189 30ZM433 200T471 227T530 300T550 399Q550 454 521 484T436 515Q384 515 345 488T286 416T265 317Q265 262 294 231T381 200Q433 200 471 227ZM632 897L605 749L363 843L392 1007L632 897Z" glyph-name="Ograve" horiz-adv-x="788" unicode="Ò"/><glyph d="M257 -7T189 30T84 134T47 289Q47 416 99 513T246 665T464 720Q556 720 624 684T730 581T767 427Q767 301 715 202T567 48T347 -7Q257 -7 189 30ZM433 200T471 227T530 300T550 399Q550 454 521 484T436 515Q384 515 345 488T286 416T265 317Q265 262 294 231T381 200Q433 200 471 227ZM622 843L346 749L373 897L651 1007L622 843Z" glyph-name="Oacute" horiz-adv-x="788" unicode="Ó"/><glyph d="M257 -7T189 30T84 134T47 289Q47 416 99 513T246 665T464 720Q556 720 624 684T730 581T767 427Q767 301 715 202T567 48T347 -7Q257 -7 189 30ZM433 200T471 227T530 300T550 399Q550 454 521 484T436 515Q384 515 345 488T286 416T265 317Q265 262 294 231T381 200Q433 200 471 227ZM491 827L310 739L335 883L516 968L666 883L641 739L491 827Z" glyph-name="Ocircumflex" horiz-adv-x="788" unicode="Ô"/><glyph d="M257 -7T189 30T84 134T47 289Q47 416 99 513T246 665T464 720Q556 720 624 684T730 581T767 427Q767 301 715 202T567 48T347 -7Q257 -7 189 30ZM433 200T471 227T530 300T550 399Q550 454 521 484T436 515Q384 515 345 488T286 416T265 317Q265 262 294 231T381 200Q433 200 471 227ZM278 852T325 893T437 935Q461 935 480 928T522 908Q541 898 551 894T573 889Q610 889 625 936H734Q702 843 655 802T543 761Q519 761 500 768T458 788Q438 798 428 802T406 806Q370 806 353 759H245Q278 852 325 893Z" glyph-name="Otilde" horiz-adv-x="788" unicode="Õ"/><glyph d="M257 -7T189 30T84 134T47 289Q47 416 99 513T246 665T464 720Q556 720 624 684T730 581T767 427Q767 301 715 202T567 48T347 -7Q257 -7 189 30ZM433 200T471 227T530 300T550 399Q550 454 521 484T436 515Q384 515 345 488T286 416T265 317Q265 262 294 231T381 200Q433 200 471 227ZM336 767T316 786T295 836Q295 879 325 909T397 939Q430 939 450 920T470 868Q470 826 440 797T367 767Q336 767 316 786ZM561 767T541 786T520 836Q520 879 550 909T622 939Q655 939 675 920T695 868Q695 826 665 797T592 767Q561 767 541 786Z" glyph-name="Odieresis" horiz-adv-x="788" unicode="Ö"/><glyph d="M445 351L551 223L378 78L274 205L127 79L9 221L156 347L57 467L229 612L327 494L464 612L583 470L445 351Z" glyph-name="multiply" horiz-adv-x="581" unicode="×"/><glyph d="M720 595Q766 524 766 427Q766 301 714 202T566 48T346 -7Q226 -7 146 59L84 1H-32L93 118Q46 192 46 289Q46 416 98 513T245 665T463 720Q588 720 668 654L730 712H845L720 595ZM264 296T268 281L502 499Q473 515 435 515Q383 515 344 488T285 416T264 317Q264 296 268 281ZM549 417T546 432L314 216Q339 200 380 200Q432 200 470 227T529 300T549 399Q549 417 546 432Z" glyph-name="Oslash" horiz-adv-x="788" unicode="Ø"/><glyph d="M342 708L272 309Q269 293 269 276Q269 242 287 223T344 203Q392 203 420 231T457 309L527 708H748L678 309Q660 205 607 134T476 28T305 -7Q186 -7 115 55T44 234Q44 271 51 309L121 708H342ZM597 897L570 749L328 843L357 1007L597 897Z" glyph-name="Ugrave" horiz-adv-x="719" unicode="Ù"/><glyph d="M342 708L272 309Q269 293 269 276Q269 242 287 223T344 203Q392 203 420 231T457 309L527 708H748L678 309Q660 205 607 134T476 28T305 -7Q186 -7 115 55T44 234Q44 271 51 309L121 708H342ZM587 843L311 749L338 897L616 1007L587 843Z" glyph-name="Uacute" horiz-adv-x="719" unicode="Ú"/><glyph d="M342 708L272 309Q269 293 269 276Q269 242 287 223T344 203Q392 203 420 231T457 309L527 708H748L678 309Q660 205 607 134T476 28T305 -7Q186 -7 115 55T44 234Q44 271 51 309L121 708H342ZM456 827L275 739L300 883L481 968L631 883L606 739L456 827Z" glyph-name="Ucircumflex" horiz-adv-x="719" unicode="Û"/><glyph d="M342 708L272 309Q269 293 269 276Q269 242 287 223T344 203Q392 203 420 231T457 309L527 708H748L678 309Q660 205 607 134T476 28T305 -7Q186 -7 115 55T44 234Q44 271 51 309L121 708H342ZM301 767T281 786T260 836Q260 879 290 909T362 939Q395 939 415 920T435 868Q435 826 405 797T332 767Q301 767 281 786ZM526 767T506 786T485 836Q485 879 515 909T587 939Q620 939 640 920T660 868Q660 826 630 797T557 767Q526 767 506 786Z" glyph-name="Udieresis" horiz-adv-x="719" unicode="Ü"/><glyph d="M805 708L464 215L426 0H204L242 215L75 708H329L398 457L555 708H805ZM593 843L317 749L344 897L622 1007L593 843Z" glyph-name="Yacute" horiz-adv-x="730" unicode="Ý"/><glyph d="M631 291T591 239T485 156T332 125H244L222 0H0L125 708H345L324 588H414Q528 588 587 539T646 403Q646 378 642 355Q631 291 591 239ZM405 290T417 355Q419 367 419 372Q419 395 404 407T359 420H296L273 290H336Q405 290 417 355Z" glyph-name="Thorn" horiz-adv-x="649" unicode="Þ"/><glyph d="M106 629T199 696T435 763Q510 763 567 742T656 684T687 598Q687 551 664 516T601 442Q582 424 573 413T564 393Q564 386 568 382T591 368T638 346Q702 318 729 285T756 196Q756 135 724 88T632 16T497 -10Q387 -10 329 41T270 188H464Q466 168 479 156T510 143Q525 143 535 151T545 171Q545 185 531 196T478 223Q402 254 370 281T338 346Q338 376 356 402T409 462Q436 490 448 506T460 538Q460 557 444 568T399 580Q362 580 336 558T303 499L215 0H-5L84 509Q106 629 199 696Z" glyph-name="germandbls" horiz-adv-x="773" unicode="ß"/><glyph d="M36 371T78 436T179 536T304 571Q359 571 395 549T445 487L459 564H680L580 0H359L373 77Q345 38 301 16T202 -7Q117 -7 65 50T13 208Q13 246 20 282Q36 371 78 436ZM411 291T411 306Q411 340 393 358T344 377Q308 377 281 352T245 282Q243 273 243 258Q243 224 261 206T310 187Q346 187 373 212T409 282Q411 291 411 306ZM558 750L531 602L289 696L318 860L558 750Z" glyph-name="agrave" horiz-adv-x="680" unicode="à"/><glyph d="M36 371T78 436T179 536T304 571Q359 571 395 549T445 487L459 564H680L580 0H359L373 77Q345 38 301 16T202 -7Q117 -7 65 50T13 208Q13 246 20 282Q36 371 78 436ZM411 291T411 306Q411 340 393 358T344 377Q308 377 281 352T245 282Q243 273 243 258Q243 224 261 206T310 187Q346 187 373 212T409 282Q411 291 411 306ZM548 696L272 602L299 750L577 860L548 696Z" glyph-name="aacute" horiz-adv-x="680" unicode="á"/><glyph d="M36 371T78 436T179 536T304 571Q359 571 395 549T445 487L459 564H680L580 0H359L373 77Q345 38 301 16T202 -7Q117 -7 65 50T13 208Q13 246 20 282Q36 371 78 436ZM411 291T411 306Q411 340 393 358T344 377Q308 377 281 352T245 282Q243 273 243 258Q243 224 261 206T310 187Q346 187 373 212T409 282Q411 291 411 306ZM417 680L236 592L261 736L442 821L592 736L567 592L417 680Z" glyph-name="acircumflex" horiz-adv-x="680" unicode="â"/><glyph d="M36 371T78 436T179 536T304 571Q359 571 395 549T445 487L459 564H680L580 0H359L373 77Q345 38 301 16T202 -7Q117 -7 65 50T13 208Q13 246 20 282Q36 371 78 436ZM411 291T411 306Q411 340 393 358T344 377Q308 377 281 352T245 282Q243 273 243 258Q243 224 261 206T310 187Q346 187 373 212T409 282Q411 291 411 306ZM204 705T251 746T363 788Q387 788 406 781T448 761Q467 751 477 747T499 742Q536 742 551 789H660Q628 696 581 655T469 614Q445 614 426 621T384 641Q364 651 354 655T332 659Q296 659 279 612H171Q204 705 251 746Z" glyph-name="atilde" horiz-adv-x="680" unicode="ã"/><glyph d="M36 371T78 436T179 536T304 571Q359 571 395 549T445 487L459 564H680L580 0H359L373 77Q345 38 301 16T202 -7Q117 -7 65 50T13 208Q13 246 20 282Q36 371 78 436ZM411 291T411 306Q411 340 393 358T344 377Q308 377 281 352T245 282Q243 273 243 258Q243 224 261 206T310 187Q346 187 373 212T409 282Q411 291 411 306ZM262 620T242 639T221 689Q221 732 251 762T323 792Q356 792 376 773T396 721Q396 679 366 650T293 620Q262 620 242 639ZM487 620T467 639T446 689Q446 732 476 762T548 792Q581 792 601 773T621 721Q621 679 591 650T518 620Q487 620 467 639Z" glyph-name="adieresis" horiz-adv-x="680" unicode="ä"/><glyph d="M36 371T78 436T179 536T304 571Q359 571 395 549T445 487L459 564H680L580 0H359L373 77Q345 38 301 16T202 -7Q117 -7 65 50T13 208Q13 246 20 282Q36 371 78 436ZM411 291T411 306Q411 340 393 358T344 377Q308 377 281 352T245 282Q243 273 243 258Q243 224 261 206T310 187Q346 187 373 212T409 282Q411 291 411 306ZM304 785T348 821T448 857Q497 857 528 829T560 753Q560 705 538 669T480 613T402 593Q352 593 322 621T291 698Q291 716 293 725Q304 785 348 821ZM472 752T461 762T433 772Q410 772 394 757T378 716Q378 699 389 689T417 678Q439 678 455 694T472 735Q472 752 461 762Z" glyph-name="aring" horiz-adv-x="680" unicode="å"/><glyph d="M937 571T989 515T1042 359Q1042 333 1035 287Q1029 260 1022 243H631Q629 201 646 184T697 167Q750 167 773 203H1008Q973 111 902 52T745 -7Q685 -7 647 15T594 77L580 0H359L373 77Q345 38 301 16T202 -7Q117 -7 65 50T13 208Q13 246 20 282Q36 371 78 436T179 536T304 571Q359 571 395 549T445 487L459 564H680L666 487Q693 527 740 549T847 571Q937 571 989 515ZM819 338T819 346Q819 371 798 384T744 397Q672 397 648 334H818Q819 338 819 346ZM411 291T411 306Q411 340 393 358T344 377Q308 377 281 352T245 282Q243 273 243 258Q243 224 261 206T310 187Q346 187 373 212T409 282Q411 291 411 306Z" glyph-name="ae" horiz-adv-x="1054" unicode="æ"/><glyph d="M324 183T344 227H579Q546 134 479 75T323 -1L317 -34Q358 -34 392 -57T427 -130Q427 -147 425 -156Q413 -221 363 -249T253 -278H80L100 -165H250Q262 -165 270 -161T279 -149V-146Q279 -134 256 -134H171L195 -2Q110 14 62 71T14 218Q14 248 20 282Q36 370 84 435T203 536T359 571Q469 571 533 509T599 337H364Q357 381 320 381Q293 381 274 356T245 282Q241 254 241 245Q241 214 253 199T286 183Q324 183 344 227Z" glyph-name="ccedilla" horiz-adv-x="609" unicode="ç"/><glyph d="M471 571T537 512T603 349Q603 320 597 287Q590 254 586 243H230Q229 237 229 226Q229 170 277 170Q314 170 335 203H570Q548 143 501 96T391 21T257 -7Q145 -7 80 52T14 218Q14 249 20 282Q36 370 84 435T203 536T359 571Q471 571 537 512ZM381 339T381 349Q381 373 366 385T328 397Q268 397 247 334H380Q381 339 381 349ZM533 750L506 602L264 696L293 860L533 750Z" glyph-name="egrave" horiz-adv-x="616" unicode="è"/><glyph d="M471 571T537 512T603 349Q603 320 597 287Q590 254 586 243H230Q229 237 229 226Q229 170 277 170Q314 170 335 203H570Q548 143 501 96T391 21T257 -7Q145 -7 80 52T14 218Q14 249 20 282Q36 370 84 435T203 536T359 571Q471 571 537 512ZM381 339T381 349Q381 373 366 385T328 397Q268 397 247 334H380Q381 339 381 349ZM523 696L247 602L274 750L552 860L523 696Z" glyph-name="eacute" horiz-adv-x="616" unicode="é"/><glyph d="M471 571T537 512T603 349Q603 320 597 287Q590 254 586 243H230Q229 237 229 226Q229 170 277 170Q314 170 335 203H570Q548 143 501 96T391 21T257 -7Q145 -7 80 52T14 218Q14 249 20 282Q36 370 84 435T203 536T359 571Q471 571 537 512ZM381 339T381 349Q381 373 366 385T328 397Q268 397 247 334H380Q381 339 381 349ZM392 680L211 592L236 736L417 821L567 736L542 592L392 680Z" glyph-name="ecircumflex" horiz-adv-x="616" unicode="ê"/><glyph d="M471 571T537 512T603 349Q603 320 597 287Q590 254 586 243H230Q229 237 229 226Q229 170 277 170Q314 170 335 203H570Q548 143 501 96T391 21T257 -7Q145 -7 80 52T14 218Q14 249 20 282Q36 370 84 435T203 536T359 571Q471 571 537 512ZM381 339T381 349Q381 373 366 385T328 397Q268 397 247 334H380Q381 339 381 349ZM237 620T217 639T196 689Q196 732 226 762T298 792Q331 792 351 773T371 721Q371 679 341 650T268 620Q237 620 217 639ZM462 620T442 639T421 689Q421 732 451 762T523 792Q556 792 576 773T596 721Q596 679 566 650T493 620Q462 620 442 639Z" glyph-name="edieresis" horiz-adv-x="616" unicode="ë"/><glyph d="M347 564L247 0H25L125 564H347ZM398 750L371 602L129 696L158 860L398 750Z" glyph-name="igrave" horiz-adv-x="372" unicode="ì"/><glyph d="M347 564L247 0H25L125 564H347ZM388 696L112 602L139 750L417 860L388 696Z" glyph-name="iacute" horiz-adv-x="372" unicode="í"/><glyph d="M347 564L247 0H25L125 564H347ZM257 680L76 592L101 736L282 821L432 736L407 592L257 680Z" glyph-name="icircumflex" horiz-adv-x="372" unicode="î"/><glyph d="M347 564L247 0H25L125 564H347ZM358 620T338 639T317 689Q317 732 347 762T419 792Q452 792 472 773T492 721Q492 679 462 650T389 620Q358 620 338 639ZM583 620T563 639T542 689Q542 732 572 762T644 792Q677 792 697 773T717 721Q717 679 687 650T614 620Q583 620 563 639Z" glyph-name="idieresis" horiz-adv-x="372" unicode="ï"/><glyph d="M603 600T619 535T636 403Q636 358 629 317Q611 215 559 142T433 32T277 -6Q203 -6 144 22T50 104T15 230Q15 252 20 284Q36 371 84 435T202 533T351 568Q384 568 429 560Q422 585 409 612L318 588L331 660L377 673Q353 713 328 740H521L539 716L609 735L596 663L574 657Q603 600 619 535ZM400 297T400 309Q400 344 383 360T341 377Q310 377 283 354T246 282Q244 273 244 258Q244 222 264 204T311 186Q340 186 364 209T397 282Q400 297 400 309Z" glyph-name="eth" horiz-adv-x="643" unicode="ð"/><glyph d="M577 568T621 521T665 390Q665 360 659 327L601 0H380L433 299Q435 315 435 321Q435 352 418 369T369 386Q333 386 308 363T275 300L222 0H0L100 564H322L307 479Q340 519 388 543T495 568Q577 568 621 521ZM241 705T288 746T400 788Q424 788 443 781T485 761Q504 751 514 747T536 742Q573 742 588 789H697Q665 696 618 655T506 614Q482 614 463 621T421 641Q401 651 391 655T369 659Q333 659 316 612H208Q241 705 288 746Z" glyph-name="ntilde" horiz-adv-x="697" unicode="ñ"/><glyph d="M192 -7T135 22T46 104T14 229Q14 327 60 405T188 527T369 571Q444 571 501 542T590 459T622 334Q622 236 576 158T449 37T267 -7Q192 -7 135 22ZM344 185T369 224T394 311Q394 345 378 362T335 379Q292 379 267 340T242 253Q242 219 258 202T301 185Q344 185 369 224ZM530 757L503 609L261 703L290 867L530 757Z" glyph-name="ograve" horiz-adv-x="636" unicode="ò"/><glyph d="M192 -7T135 22T46 104T14 229Q14 327 60 405T188 527T369 571Q444 571 501 542T590 459T622 334Q622 236 576 158T449 37T267 -7Q192 -7 135 22ZM344 185T369 224T394 311Q394 345 378 362T335 379Q292 379 267 340T242 253Q242 219 258 202T301 185Q344 185 369 224ZM520 703L244 609L271 757L549 867L520 703Z" glyph-name="oacute" horiz-adv-x="636" unicode="ó"/><glyph d="M192 -7T135 22T46 104T14 229Q14 327 60 405T188 527T369 571Q444 571 501 542T590 459T622 334Q622 236 576 158T449 37T267 -7Q192 -7 135 22ZM344 185T369 224T394 311Q394 345 378 362T335 379Q292 379 267 340T242 253Q242 219 258 202T301 185Q344 185 369 224ZM389 687L208 599L233 743L414 828L564 743L539 599L389 687Z" glyph-name="ocircumflex" horiz-adv-x="636" unicode="ô"/><glyph d="M192 -7T135 22T46 104T14 229Q14 327 60 405T188 527T369 571Q444 571 501 542T590 459T622 334Q622 236 576 158T449 37T267 -7Q192 -7 135 22ZM344 185T369 224T394 311Q394 345 378 362T335 379Q292 379 267 340T242 253Q242 219 258 202T301 185Q344 185 369 224ZM176 712T223 753T335 795Q359 795 378 788T420 768Q439 758 449 754T471 749Q508 749 523 796H632Q600 703 553 662T441 621Q417 621 398 628T356 648Q336 658 326 662T304 666Q268 666 251 619H143Q176 712 223 753Z" glyph-name="otilde" horiz-adv-x="636" unicode="õ"/><glyph d="M192 -7T135 22T46 104T14 229Q14 327 60 405T188 527T369 571Q444 571 501 542T590 459T622 334Q622 236 576 158T449 37T267 -7Q192 -7 135 22ZM344 185T369 224T394 311Q394 345 378 362T335 379Q292 379 267 340T242 253Q242 219 258 202T301 185Q344 185 369 224ZM234 627T214 646T193 696Q193 739 223 769T295 799Q328 799 348 780T368 728Q368 686 338 657T265 627Q234 627 214 646ZM459 627T439 646T418 696Q418 739 448 769T520 799Q553 799 573 780T593 728Q593 686 563 657T490 627Q459 627 439 646Z" glyph-name="odieresis" horiz-adv-x="636" unicode="ö"/><glyph d="M265 467T236 492T206 557Q206 592 225 622T279 669T356 687Q407 687 436 662T465 596Q465 561 446 532T393 485T317 467Q265 467 236 492ZM559 441L524 240H13L48 441H559ZM155 -8T126 17T96 82Q96 117 115 147T169 194T246 212Q297 212 326 187T355 121Q355 86 336 57T283 10T207 -8Q155 -8 126 17Z" glyph-name="divide" horiz-adv-x="551" unicode="÷"/><glyph d="M572 474Q614 415 614 334Q614 236 568 158T441 37T259 -7Q164 -7 97 40L53 0H-50L48 89Q6 148 6 229Q6 327 52 405T180 527T361 571Q458 571 523 523L568 564H671L572 474ZM286 379T261 342T234 259L357 372Q344 379 327 379Q286 379 261 342ZM334 185T359 221T386 304L263 192Q276 185 293 185Q334 185 359 221Z" glyph-name="oslash" horiz-adv-x="621" unicode="ø"/><glyph d="M697 564L597 0H375L390 85Q357 45 309 21T202 -4Q120 -4 76 43T32 174Q32 204 38 237L96 564H317L264 265Q262 249 262 243Q262 212 279 195T328 178Q364 178 389 201T422 264L475 564H697ZM560 750L533 602L291 696L320 860L560 750Z" glyph-name="ugrave" horiz-adv-x="697" unicode="ù"/><glyph d="M697 564L597 0H375L390 85Q357 45 309 21T202 -4Q120 -4 76 43T32 174Q32 204 38 237L96 564H317L264 265Q262 249 262 243Q262 212 279 195T328 178Q364 178 389 201T422 264L475 564H697ZM550 696L274 602L301 750L579 860L550 696Z" glyph-name="uacute" horiz-adv-x="697" unicode="ú"/><glyph d="M697 564L597 0H375L390 85Q357 45 309 21T202 -4Q120 -4 76 43T32 174Q32 204 38 237L96 564H317L264 265Q262 249 262 243Q262 212 279 195T328 178Q364 178 389 201T422 264L475 564H697ZM419 680L238 592L263 736L444 821L594 736L569 592L419 680Z" glyph-name="ucircumflex" horiz-adv-x="697" unicode="û"/><glyph d="M697 564L597 0H375L390 85Q357 45 309 21T202 -4Q120 -4 76 43T32 174Q32 204 38 237L96 564H317L264 265Q262 249 262 243Q262 212 279 195T328 178Q364 178 389 201T422 264L475 564H697ZM264 620T244 639T223 689Q223 732 253 762T325 792Q358 792 378 773T398 721Q398 679 368 650T295 620Q264 620 244 639ZM489 620T469 639T448 689Q448 732 478 762T550 792Q583 792 603 773T623 721Q623 679 593 650T520 620Q489 620 469 639Z" glyph-name="udieresis" horiz-adv-x="697" unicode="ü"/><glyph d="M287 564L342 278L492 564H737L229 -270H-14L180 28L40 564H287ZM540 696L264 602L291 750L569 860L540 696Z" glyph-name="yacute" horiz-adv-x="677" unicode="ý"/><glyph d="M345 543T380 555T461 568Q519 568 565 540T638 459T665 340Q665 310 659 278Q644 195 599 131T491 30T360 -6Q316 -6 286 10T233 62L175 -270H-47L131 740H353L313 514Q345 543 380 555ZM436 287T436 303Q436 339 416 357T371 376Q340 376 311 354T272 282Q270 273 270 258Q270 222 290 205T337 187Q368 187 397 208T434 278Q436 287 436 303Z" glyph-name="thorn" horiz-adv-x="680" unicode="þ"/><glyph d="M287 564L342 278L492 564H737L229 -270H-14L180 28L40 564H287ZM254 620T234 639T213 689Q213 732 243 762T315 792Q348 792 368 773T388 721Q388 679 358 650T285 620Q254 620 234 639ZM479 620T459 639T438 689Q438 732 468 762T540 792Q573 792 593 773T613 721Q613 679 583 650T510 620Q479 620 459 639Z" glyph-name="ydieresis" horiz-adv-x="677" unicode="ÿ"/><glyph d="M655 433L622 250H49L82 433H655Z" glyph-name="endash" horiz-adv-x="683" unicode="–"/><glyph d="M908 433L875 250H49L82 433H908Z" glyph-name="emdash" horiz-adv-x="936" unicode="—"/><glyph d="M293 413H73L243 708H389L293 413Z" glyph-name="quoteleft" horiz-adv-x="378" unicode="‘"/><glyph d="M183 708H403L233 413H87L183 708Z" glyph-name="quoteright" horiz-adv-x="378" unicode="’"/><glyph d="M85 188H305L135 -107H-11L85 188Z" glyph-name="quotesinglbase" horiz-adv-x="362" unicode="‚"/><glyph d="M293 413H73L243 708H389L293 413ZM575 413H355L525 708H671L575 413Z" glyph-name="quotedblleft" horiz-adv-x="660" unicode="“"/><glyph d="M183 708H403L233 413H87L183 708ZM465 708H685L515 413H369L465 708Z" glyph-name="quotedblright" horiz-adv-x="660" unicode="”"/><glyph d="M85 188H305L135 -107H-11L85 188ZM353 188H573L403 -107H257L353 188Z" glyph-name="quotedblbase" horiz-adv-x="631" unicode="„"/><glyph d="M185 166T146 204T106 302Q106 318 109 333Q117 380 146 418T218 479T307 502Q370 502 409 464T448 365Q448 350 445 333Q437 287 408 249T337 188T248 166Q185 166 146 204Z" glyph-name="bullet" horiz-adv-x="536" unicode="•"/><glyph d="M93 120L47 295L155 470H356L246 295L294 120H93Z" glyph-name="guilsinglleft" horiz-adv-x="373" unicode="‹"/><glyph d="M132 295L83 470H285L330 295L223 120H21L132 295Z" glyph-name="guilsinglright" horiz-adv-x="373" unicode="›"/></font>
</defs>
</svg>
